<?xml version="1.0" encoding="UTF-8"?>
<svg id="Layer_1" data-name="Layer 1" xmlns="http://www.w3.org/2000/svg" viewBox="0 0 1754.06 1871.61">
  <defs>
    <style>
      .cls-1 {
        fill: none;
        stroke: #231f20;
        stroke-linecap: round;
        stroke-linejoin: round;
        stroke-width: 25px;
      }

      .cls-2 {
        fill: #a4c3c0;
      }

      .cls-3 {
        fill: #006838;
      }
    </style>
  </defs>
  <g>
    <g>
      <line class="cls-3" x1="1202.56" y1="496.21" x2="1210.38" y2="488.53"/>
      <path class="cls-2" d="M1210.38,488.53c-16.73,35.64-33.03,84.42-35.93,121.98l-27.38-59.77-59.27-28.42c37.6-2.24,86.66-17.67,122.58-33.78Z"/>
    </g>
    <g>
      <line class="cls-3" x1="470" y1="698.83" x2="477.82" y2="691.14"/>
      <path class="cls-2" d="M477.82,691.14c-16.73,35.64-33.03,84.42-35.93,121.98l-27.38-59.77-59.27-28.42c37.6-2.24,86.66-17.67,122.58-33.78Z"/>
    </g>
    <g>
      <line class="cls-3" x1="988.27" y1="1228.39" x2="996.09" y2="1220.7"/>
      <path class="cls-2" d="M996.09,1220.7c-16.73,35.64-33.03,84.42-35.93,121.98l-27.38-59.77-59.27-28.42c37.6-2.24,86.66-17.67,122.58-33.78Z"/>
    </g>
  </g>
  <g>
    <g>
      <line class="cls-3" x1="1343.86" y1="547.22" x2="1351.68" y2="539.54"/>
      <path class="cls-2" d="M1351.68,539.54c-16.73,35.64-33.03,84.42-35.93,121.98l-27.38-59.77-59.27-28.42c37.6-2.24,86.66-17.67,122.58-33.78Z"/>
    </g>
    <g>
      <line class="cls-3" x1="611.3" y1="749.84" x2="619.12" y2="742.16"/>
      <path class="cls-2" d="M619.12,742.16c-16.73,35.64-33.03,84.42-35.93,121.98l-27.38-59.77-59.27-28.42c37.6-2.24,86.66-17.67,122.58-33.78Z"/>
    </g>
    <g>
      <line class="cls-3" x1="1129.57" y1="1279.4" x2="1137.39" y2="1271.72"/>
      <path class="cls-2" d="M1137.39,1271.72c-16.73,35.64-33.03,84.42-35.93,121.98l-27.38-59.77-59.27-28.42c37.6-2.24,86.66-17.67,122.58-33.78Z"/>
    </g>
  </g>
  <g>
    <g>
      <line class="cls-3" x1="1012.65" y1="578.28" x2="1020.47" y2="570.6"/>
      <path class="cls-2" d="M1020.47,570.6c-16.73,35.64-33.03,84.42-35.93,121.98l-27.38-59.77-59.27-28.42c37.6-2.24,86.66-17.67,122.58-33.78Z"/>
    </g>
    <g>
      <line class="cls-3" x1="280.08" y1="780.9" x2="287.9" y2="773.22"/>
      <path class="cls-2" d="M287.9,773.22c-16.73,35.64-33.03,84.42-35.93,121.98l-27.38-59.77-59.27-28.42c37.6-2.24,86.66-17.67,122.58-33.78Z"/>
    </g>
    <g>
      <line class="cls-3" x1="798.35" y1="1310.46" x2="806.17" y2="1302.78"/>
      <path class="cls-2" d="M806.17,1302.78c-16.73,35.64-33.03,84.42-35.93,121.98l-27.38-59.77-59.27-28.42c37.6-2.24,86.66-17.67,122.58-33.78Z"/>
    </g>
  </g>
  <g>
    <g>
      <line class="cls-3" x1="1196.87" y1="668.86" x2="1204.7" y2="661.18"/>
      <path class="cls-2" d="M1204.7,661.18c-16.73,35.64-33.03,84.42-35.93,121.98l-27.38-59.77-59.27-28.42c37.6-2.24,86.66-17.67,122.58-33.78Z"/>
    </g>
    <g>
      <line class="cls-3" x1="464.31" y1="871.48" x2="472.13" y2="863.8"/>
      <path class="cls-2" d="M472.13,863.8c-16.73,35.64-33.03,84.42-35.93,121.98l-27.38-59.77-59.27-28.42c37.6-2.24,86.66-17.67,122.58-33.78Z"/>
    </g>
    <g>
      <line class="cls-3" x1="982.58" y1="1401.04" x2="990.4" y2="1393.36"/>
      <path class="cls-2" d="M990.4,1393.36c-16.73,35.64-33.03,84.42-35.93,121.98l-27.38-59.77-59.27-28.42c37.6-2.24,86.66-17.67,122.58-33.78Z"/>
    </g>
  </g>
  <g>
    <g>
      <line class="cls-3" x1="1620.4" y1="841.54" x2="1628.22" y2="833.86"/>
      <path class="cls-2" d="M1628.22,833.86c-16.73,35.64-33.03,84.42-35.93,121.98l-27.38-59.77-59.27-28.42c37.6-2.24,86.66-17.67,122.58-33.78Z"/>
    </g>
    <g>
      <line class="cls-3" x1="879.95" y1="1009.19" x2="887.77" y2="1001.51"/>
      <path class="cls-2" d="M887.77,1001.51c-16.73,35.64-33.03,84.42-35.93,121.98l-27.38-59.77-59.27-28.42c37.6-2.24,86.66-17.67,122.58-33.78Z"/>
    </g>
    <g>
      <line class="cls-3" x1="1406.1" y1="1573.72" x2="1413.92" y2="1566.04"/>
      <path class="cls-2" d="M1413.92,1566.04c-16.73,35.64-33.03,84.42-35.93,121.98l-27.38-59.77-59.27-28.42c37.6-2.24,86.66-17.67,122.58-33.78Z"/>
    </g>
  </g>
  <g>
    <g>
      <line class="cls-3" x1="1189.5" y1="364.05" x2="1197.32" y2="356.37"/>
      <path class="cls-2" d="M1197.32,356.37c-16.73,35.64-33.03,84.42-35.93,121.98l-27.38-59.77-59.27-28.42c37.6-2.24,86.66-17.67,122.58-33.78Z"/>
    </g>
    <g>
      <line class="cls-3" x1="456.93" y1="566.67" x2="464.75" y2="558.99"/>
      <path class="cls-2" d="M464.75,558.99c-16.73,35.64-33.03,84.42-35.93,121.98l-27.38-59.77-59.27-28.42c37.6-2.24,86.66-17.67,122.58-33.78Z"/>
    </g>
    <g>
      <line class="cls-3" x1="989.1" y1="1088.8" x2="996.92" y2="1081.12"/>
      <path class="cls-2" d="M996.92,1081.12c-16.73,35.64-33.03,84.42-35.93,121.98l-27.38-59.77-59.27-28.42c37.6-2.24,86.66-17.67,122.58-33.78Z"/>
    </g>
  </g>
  <g>
    <g>
      <line class="cls-3" x1="1557.42" y1="670.78" x2="1565.24" y2="663.09"/>
      <path class="cls-2" d="M1565.24,663.09c-16.73,35.64-33.03,84.42-35.93,121.98l-27.38-59.77-59.27-28.42c37.6-2.24,86.66-17.67,122.58-33.78Z"/>
    </g>
    <g>
      <line class="cls-3" x1="824.85" y1="873.4" x2="832.67" y2="865.71"/>
      <path class="cls-2" d="M832.67,865.71c-16.73,35.64-33.03,84.42-35.93,121.98l-27.38-59.77-59.27-28.42c37.6-2.24,86.66-17.67,122.58-33.78Z"/>
    </g>
    <g>
      <line class="cls-3" x1="1343.12" y1="1402.95" x2="1350.94" y2="1395.27"/>
      <path class="cls-2" d="M1350.94,1395.27c-16.73,35.64-33.03,84.42-35.93,121.98l-27.38-59.77-59.27-28.42c37.6-2.24,86.66-17.67,122.58-33.78Z"/>
    </g>
  </g>
  <g>
    <g>
      <line class="cls-3" x1="1025.03" y1="736.24" x2="1032.85" y2="728.56"/>
      <path class="cls-2" d="M1032.85,728.56c-16.73,35.64-33.03,84.42-35.93,121.98l-27.38-59.77-59.27-28.42c37.6-2.24,86.66-17.67,122.58-33.78Z"/>
    </g>
    <g>
      <line class="cls-3" x1="810.73" y1="187.87" x2="818.55" y2="180.19"/>
      <path class="cls-2" d="M818.55,180.19c-16.73,35.64-33.03,84.42-35.93,121.98l-27.38-59.77-59.27-28.42c37.6-2.24,86.66-17.67,122.58-33.78Z"/>
    </g>
    <g>
      <line class="cls-3" x1="810.73" y1="1468.42" x2="818.55" y2="1460.74"/>
      <path class="cls-2" d="M818.55,1460.74c-16.73,35.64-33.03,84.42-35.93,121.98l-27.38-59.77-59.27-28.42c37.6-2.24,86.66-17.67,122.58-33.78Z"/>
    </g>
  </g>
  <g>
    <g>
      <line class="cls-3" x1="1285.18" y1="791.69" x2="1293" y2="784"/>
      <path class="cls-2" d="M1293,784c-16.73,35.64-33.03,84.42-35.93,121.98l-27.38-59.77-59.27-28.42c37.6-2.24,86.66-17.67,122.58-33.78Z"/>
    </g>
    <g>
      <line class="cls-3" x1="552.61" y1="994.31" x2="560.43" y2="986.62"/>
      <path class="cls-2" d="M560.43,986.62c-16.73,35.64-33.03,84.42-35.93,121.98l-27.38-59.77-59.27-28.42c37.6-2.24,86.66-17.67,122.58-33.78Z"/>
    </g>
    <g>
      <line class="cls-3" x1="1070.88" y1="1523.86" x2="1078.7" y2="1516.18"/>
      <path class="cls-2" d="M1078.7,1516.18c-16.73,35.64-33.03,84.42-35.93,121.98l-27.38-59.77-59.27-28.42c37.6-2.24,86.66-17.67,122.58-33.78Z"/>
    </g>
  </g>
  <g>
    <g>
      <line class="cls-3" x1="1148.28" y1="862.3" x2="1156.1" y2="854.61"/>
      <path class="cls-2" d="M1156.1,854.61c-16.73,35.64-33.03,84.42-35.93,121.98l-27.38-59.77-59.27-28.42c37.6-2.24,86.66-17.67,122.58-33.78Z"/>
    </g>
    <g>
      <line class="cls-3" x1="415.71" y1="1064.92" x2="423.53" y2="1057.23"/>
      <path class="cls-2" d="M423.53,1057.23c-16.73,35.64-33.03,84.42-35.93,121.98l-27.38-59.77-59.27-28.42c37.6-2.24,86.66-17.67,122.58-33.78Z"/>
    </g>
    <g>
      <line class="cls-3" x1="933.98" y1="1594.48" x2="941.8" y2="1586.79"/>
      <path class="cls-2" d="M941.8,1586.79c-16.73,35.64-33.03,84.42-35.93,121.98l-27.38-59.77-59.27-28.42c37.6-2.24,86.66-17.67,122.58-33.78Z"/>
    </g>
  </g>
  <g>
    <g>
      <line class="cls-3" x1="1082.44" y1="475.45" x2="1090.26" y2="467.77"/>
      <path class="cls-2" d="M1090.26,467.77c-16.73,35.64-33.03,84.42-35.93,121.98l-27.38-59.77-59.27-28.42c37.6-2.24,86.66-17.67,122.58-33.78Z"/>
    </g>
    <g>
      <line class="cls-3" x1="349.88" y1="678.07" x2="357.7" y2="670.39"/>
      <path class="cls-2" d="M357.7,670.39c-16.73,35.64-33.03,84.42-35.93,121.98l-27.38-59.77-59.27-28.42c37.6-2.24,86.66-17.67,122.58-33.78Z"/>
    </g>
    <g>
      <line class="cls-3" x1="868.15" y1="1207.63" x2="875.97" y2="1199.95"/>
      <path class="cls-2" d="M875.97,1199.95c-16.73,35.64-33.03,84.42-35.93,121.98l-27.38-59.77-59.27-28.42c37.6-2.24,86.66-17.67,122.58-33.78Z"/>
    </g>
  </g>
  <g>
    <g>
      <line class="cls-3" x1="1358.53" y1="959" x2="1366.35" y2="951.32"/>
      <path class="cls-2" d="M1366.35,951.32c-16.73,35.64-33.03,84.42-35.93,121.98l-27.38-59.77-59.27-28.42c37.6-2.24,86.66-17.67,122.58-33.78Z"/>
    </g>
    <g>
      <line class="cls-3" x1="625.97" y1="1161.62" x2="633.79" y2="1153.94"/>
      <path class="cls-2" d="M633.79,1153.94c-16.73,35.64-33.03,84.42-35.93,121.98l-27.38-59.77-59.27-28.42c37.6-2.24,86.66-17.67,122.58-33.78Z"/>
    </g>
    <g>
      <line class="cls-3" x1="1144.24" y1="1691.18" x2="1152.06" y2="1683.5"/>
      <path class="cls-2" d="M1152.06,1683.5c-16.73,35.64-33.03,84.42-35.93,121.98l-27.38-59.77-59.27-28.42c37.6-2.24,86.66-17.67,122.58-33.78Z"/>
    </g>
  </g>
  <g>
    <g>
      <line class="cls-3" x1="1468.41" y1="857.27" x2="1476.23" y2="849.59"/>
      <path class="cls-2" d="M1476.23,849.59c-16.73,35.64-33.03,84.42-35.93,121.98l-27.38-59.77-59.27-28.42c37.6-2.24,86.66-17.67,122.58-33.78Z"/>
    </g>
    <g>
      <line class="cls-3" x1="735.84" y1="1059.89" x2="743.66" y2="1052.21"/>
      <path class="cls-2" d="M743.66,1052.21c-16.73,35.64-33.03,84.42-35.93,121.98l-27.38-59.77-59.27-28.42c37.6-2.24,86.66-17.67,122.58-33.78Z"/>
    </g>
    <g>
      <line class="cls-3" x1="1254.11" y1="1589.45" x2="1261.93" y2="1581.77"/>
      <path class="cls-2" d="M1261.93,1581.77c-16.73,35.64-33.03,84.42-35.93,121.98l-27.38-59.77-59.27-28.42c37.6-2.24,86.66-17.67,122.58-33.78Z"/>
    </g>
  </g>
  <g>
    <g>
      <line class="cls-3" x1="284.68" y1="234.96" x2="292.5" y2="227.28"/>
      <path class="cls-2" d="M292.5,227.28c-16.73,35.64-33.03,84.42-35.93,121.98l-27.38-59.77-59.27-28.42c37.6-2.24,86.66-17.67,122.58-33.78Z"/>
    </g>
    <g>
      <line class="cls-3" x1="142.5" y1="1204.2" x2="150.32" y2="1196.52"/>
      <path class="cls-2" d="M150.32,1196.52c-16.73,35.64-33.03,84.42-35.93,121.98l-27.38-59.77-59.27-28.42c37.6-2.24,86.66-17.67,122.58-33.78Z"/>
    </g>
    <g>
      <line class="cls-3" x1="660.77" y1="1733.76" x2="668.59" y2="1726.08"/>
      <path class="cls-2" d="M668.59,1726.08c-16.73,35.64-33.03,84.42-35.93,121.98l-27.38-59.77-59.27-28.42c37.6-2.24,86.66-17.67,122.58-33.78Z"/>
    </g>
  </g>
  <g>
    <g>
      <line class="cls-3" x1="992.25" y1="909.47" x2="1000.07" y2="901.78"/>
      <path class="cls-2" d="M1000.07,901.78c-16.73,35.64-33.03,84.42-35.93,121.98l-27.38-59.77-59.27-28.42c37.6-2.24,86.66-17.67,122.58-33.78Z"/>
    </g>
    <g>
      <line class="cls-3" x1="259.68" y1="1112.09" x2="267.51" y2="1104.4"/>
      <path class="cls-2" d="M267.51,1104.4c-16.73,35.64-33.03,84.42-35.93,121.98l-27.38-59.77-59.27-28.42c37.6-2.24,86.66-17.67,122.58-33.78Z"/>
    </g>
    <g>
      <line class="cls-3" x1="777.96" y1="1641.65" x2="785.78" y2="1633.96"/>
      <path class="cls-2" d="M785.78,1633.96c-16.73,35.64-33.03,84.42-35.93,121.98l-27.38-59.77-59.27-28.42c37.6-2.24,86.66-17.67,122.58-33.78Z"/>
    </g>
  </g>
  <g>
    <g>
      <line class="cls-3" x1="1649.09" y1="600.56" x2="1656.91" y2="592.87"/>
      <path class="cls-2" d="M1656.91,592.87c-16.73,35.64-33.03,84.42-35.93,121.98l-27.38-59.77-59.27-28.42c37.6-2.24,86.66-17.67,122.58-33.78Z"/>
    </g>
    <g>
      <line class="cls-3" x1="916.53" y1="803.18" x2="924.35" y2="795.49"/>
      <path class="cls-2" d="M924.35,795.49c-16.73,35.64-33.03,84.42-35.93,121.98l-27.38-59.77-59.27-28.42c37.6-2.24,86.66-17.67,122.58-33.78Z"/>
    </g>
    <g>
      <line class="cls-3" x1="1434.8" y1="1332.74" x2="1442.62" y2="1325.05"/>
      <path class="cls-2" d="M1442.62,1325.05c-16.73,35.64-33.03,84.42-35.93,121.98l-27.38-59.77-59.27-28.42c37.6-2.24,86.66-17.67,122.58-33.78Z"/>
    </g>
  </g>
  <g>
    <g>
      <line class="cls-3" x1="1628.82" y1="429.44" x2="1636.64" y2="421.75"/>
      <path class="cls-2" d="M1636.64,421.75c-16.73,35.64-33.03,84.42-35.93,121.98l-27.38-59.77-59.27-28.42c37.6-2.24,86.66-17.67,122.58-33.78Z"/>
    </g>
    <g>
      <line class="cls-3" x1="896.26" y1="632.06" x2="904.08" y2="624.37"/>
      <path class="cls-2" d="M904.08,624.37c-16.73,35.64-33.03,84.42-35.93,121.98l-27.38-59.77-59.27-28.42c37.6-2.24,86.66-17.67,122.58-33.78Z"/>
    </g>
    <g>
      <line class="cls-3" x1="1414.53" y1="1161.62" x2="1422.35" y2="1153.93"/>
      <path class="cls-2" d="M1422.35,1153.93c-16.73,35.64-33.03,84.42-35.93,121.98l-27.38-59.77-59.27-28.42c37.6-2.24,86.66-17.67,122.58-33.78Z"/>
    </g>
  </g>
  <g>
    <g>
      <line class="cls-3" x1="1300.27" y1="253.52" x2="1308.09" y2="245.84"/>
      <path class="cls-2" d="M1308.09,245.84c-16.73,35.64-33.03,84.42-35.93,121.98l-27.38-59.77-59.27-28.42c37.6-2.24,86.66-17.67,122.58-33.78Z"/>
    </g>
    <g>
      <line class="cls-3" x1="567.7" y1="456.14" x2="575.52" y2="448.46"/>
      <path class="cls-2" d="M575.52,448.46c-16.73,35.64-33.03,84.42-35.93,121.98l-27.38-59.77-59.27-28.42c37.6-2.24,86.66-17.67,122.58-33.78Z"/>
    </g>
    <g>
      <line class="cls-3" x1="1085.97" y1="985.7" x2="1093.79" y2="978.02"/>
      <path class="cls-2" d="M1093.79,978.02c-16.73,35.64-33.03,84.42-35.93,121.98l-27.38-59.77-59.27-28.42c37.6-2.24,86.66-17.67,122.58-33.78Z"/>
    </g>
  </g>
  <g>
    <g>
      <line class="cls-3" x1="1480.74" y1="315.83" x2="1488.57" y2="308.14"/>
      <path class="cls-2" d="M1488.57,308.14c-16.73,35.64-33.03,84.42-35.93,121.98l-27.38-59.77-59.27-28.42c37.6-2.24,86.66-17.67,122.58-33.78Z"/>
    </g>
    <g>
      <line class="cls-3" x1="748.18" y1="518.45" x2="756" y2="510.76"/>
      <path class="cls-2" d="M756,510.76c-16.73,35.64-33.03,84.42-35.93,121.98l-27.38-59.77-59.27-28.42c37.6-2.24,86.66-17.67,122.58-33.78Z"/>
    </g>
    <g>
      <line class="cls-3" x1="1266.45" y1="1048" x2="1274.27" y2="1040.32"/>
      <path class="cls-2" d="M1274.27,1040.32c-16.73,35.64-33.03,84.42-35.93,121.98l-27.38-59.77-59.27-28.42c37.6-2.24,86.66-17.67,122.58-33.78Z"/>
    </g>
  </g>
  <g>
    <g>
      <line class="cls-3" x1="1495.85" y1="495.03" x2="1503.67" y2="487.34"/>
      <path class="cls-2" d="M1503.67,487.34c-16.73,35.64-33.03,84.42-35.93,121.98l-27.38-59.77-59.27-28.42c37.6-2.24,86.66-17.67,122.58-33.78Z"/>
    </g>
    <g>
      <line class="cls-3" x1="763.28" y1="697.65" x2="771.1" y2="689.96"/>
      <path class="cls-2" d="M771.1,689.96c-16.73,35.64-33.03,84.42-35.93,121.98l-27.38-59.77-59.27-28.42c37.6-2.24,86.66-17.67,122.58-33.78Z"/>
    </g>
    <g>
      <line class="cls-3" x1="1281.55" y1="1227.21" x2="1289.37" y2="1219.52"/>
      <path class="cls-2" d="M1289.37,1219.52c-16.73,35.64-33.03,84.42-35.93,121.98l-27.38-59.77-59.27-28.42c37.6-2.24,86.66-17.67,122.58-33.78Z"/>
    </g>
  </g>
  <g>
    <g>
      <line class="cls-3" x1="1352.77" y1="384.4" x2="1360.59" y2="376.71"/>
      <path class="cls-2" d="M1360.59,376.71c-16.73,35.64-33.03,84.42-35.93,121.98l-27.38-59.77-59.27-28.42c37.6-2.24,86.66-17.67,122.58-33.78Z"/>
    </g>
    <g>
      <line class="cls-3" x1="620.21" y1="587.02" x2="628.03" y2="579.33"/>
      <path class="cls-2" d="M628.03,579.33c-16.73,35.64-33.03,84.42-35.93,121.98l-27.38-59.77-59.27-28.42c37.6-2.24,86.66-17.67,122.58-33.78Z"/>
    </g>
    <g>
      <line class="cls-3" x1="1138.48" y1="1116.58" x2="1146.3" y2="1108.89"/>
      <path class="cls-2" d="M1146.3,1108.89c-16.73,35.64-33.03,84.42-35.93,121.98l-27.38-59.77-59.27-28.42c37.6-2.24,86.66-17.67,122.58-33.78Z"/>
    </g>
  </g>
  <g>
    <g>
      <line class="cls-3" x1="1426.04" y1="695.47" x2="1433.86" y2="687.78"/>
      <path class="cls-2" d="M1433.86,687.78c-16.73,35.64-33.03,84.42-35.93,121.98l-27.38-59.77-59.27-28.42c37.6-2.24,86.66-17.67,122.58-33.78Z"/>
    </g>
    <g>
      <line class="cls-3" x1="693.47" y1="898.09" x2="701.3" y2="890.4"/>
      <path class="cls-2" d="M701.3,890.4c-16.73,35.64-33.03,84.42-35.93,121.98l-27.38-59.77-59.27-28.42c37.6-2.24,86.66-17.67,122.58-33.78Z"/>
    </g>
    <g>
      <line class="cls-3" x1="1211.75" y1="1427.65" x2="1219.57" y2="1419.96"/>
      <path class="cls-2" d="M1219.57,1419.96c-16.73,35.64-33.03,84.42-35.93,121.98l-27.38-59.77-59.27-28.42c37.6-2.24,86.66-17.67,122.58-33.78Z"/>
    </g>
  </g>
  <g>
    <g>
      <line class="cls-3" x1="1500.85" y1="1025.14" x2="1508.67" y2="1017.46"/>
      <path class="cls-2" d="M1508.67,1017.46c-16.73,35.64-33.03,84.42-35.93,121.98l-27.38-59.77-59.27-28.42c37.6-2.24,86.66-17.67,122.58-33.78Z"/>
    </g>
    <g>
      <line class="cls-3" x1="768.29" y1="1227.76" x2="776.11" y2="1220.08"/>
      <path class="cls-2" d="M776.11,1220.08c-16.73,35.64-33.03,84.42-35.93,121.98l-27.38-59.77-59.27-28.42c37.6-2.24,86.66-17.67,122.58-33.78Z"/>
    </g>
    <g>
      <line class="cls-3" x1="1286.56" y1="1757.32" x2="1294.38" y2="1749.64"/>
      <path class="cls-2" d="M1294.38,1749.64c-16.73,35.64-33.03,84.42-35.93,121.98l-27.38-59.77-59.27-28.42c37.6-2.24,86.66-17.67,122.58-33.78Z"/>
    </g>
  </g>
  <g>
    <g>
      <line class="cls-3" x1="1632.73" y1="1115.19" x2="1640.55" y2="1107.5"/>
      <path class="cls-2" d="M1640.55,1107.5c-16.73,35.64-33.03,84.42-35.93,121.98l-27.38-59.77-59.27-28.42c37.6-2.24,86.66-17.67,122.58-33.78Z"/>
    </g>
    <g>
      <line class="cls-3" x1="900.17" y1="1317.81" x2="907.99" y2="1310.12"/>
      <path class="cls-2" d="M907.99,1310.12c-16.73,35.64-33.03,84.42-35.93,121.98l-27.38-59.77-59.27-28.42c37.6-2.24,86.66-17.67,122.58-33.78Z"/>
    </g>
  </g>
  <g>
    <line class="cls-3" x1="1561.33" y1="1254.89" x2="1569.15" y2="1247.2"/>
    <path class="cls-2" d="M1569.15,1247.2c-16.73,35.64-33.03,84.42-35.93,121.98l-27.38-59.77-59.27-28.42c37.6-2.24,86.66-17.67,122.58-33.78Z"/>
  </g>
  <g>
    <line class="cls-3" x1="1558.69" y1="1423.8" x2="1566.51" y2="1416.12"/>
    <path class="cls-2" d="M1566.51,1416.12c-16.73,35.64-33.03,84.42-35.93,121.98l-27.38-59.77-59.27-28.42c37.6-2.24,86.66-17.67,122.58-33.78Z"/>
  </g>
  <g>
    <line class="cls-3" x1="473.91" y1="1218.19" x2="481.73" y2="1210.51"/>
    <path class="cls-2" d="M481.73,1210.51c-16.73,35.64-33.03,84.42-35.93,121.98l-27.38-59.77-59.27-28.42c37.6-2.24,86.66-17.67,122.58-33.78Z"/>
  </g>
  <g>
    <line class="cls-3" x1="645.56" y1="343.07" x2="653.38" y2="335.39"/>
    <path class="cls-2" d="M653.38,335.39c-16.73,35.64-33.03,84.42-35.93,121.98l-27.38-59.77-59.27-28.42c37.6-2.24,86.66-17.67,122.58-33.78Z"/>
  </g>
  <g>
    <line class="cls-3" x1="788.67" y1="376.44" x2="796.49" y2="368.76"/>
    <path class="cls-2" d="M796.49,368.76c-16.73,35.64-33.03,84.42-35.93,121.98l-27.38-59.77-59.27-28.42c37.6-2.24,86.66-17.67,122.58-33.78Z"/>
  </g>
  <g>
    <line class="cls-3" x1="1152.19" y1="218.42" x2="1160.01" y2="210.74"/>
    <path class="cls-2" d="M1160.01,210.74c-16.73,35.64-33.03,84.42-35.93,121.98l-27.38-59.77-59.27-28.42c37.6-2.24,86.66-17.67,122.58-33.78Z"/>
  </g>
  <g>
    <line class="cls-3" x1="1024.97" y1="360.21" x2="1032.79" y2="352.52"/>
    <path class="cls-2" d="M1032.79,352.52c-16.73,35.64-33.03,84.42-35.93,121.98l-27.38-59.77-59.27-28.42c37.6-2.24,86.66-17.67,122.58-33.78Z"/>
  </g>
  <g>
    <line class="cls-3" x1="878.97" y1="486.85" x2="886.79" y2="479.17"/>
    <path class="cls-2" d="M886.79,479.17c-16.73,35.64-33.03,84.42-35.93,121.98l-27.38-59.77-59.27-28.42c37.6-2.24,86.66-17.67,122.58-33.78Z"/>
  </g>
  <g>
    <line class="cls-3" x1="184.53" y1="1018.92" x2="192.36" y2="1011.24"/>
    <path class="cls-2" d="M192.36,1011.24c-16.73,35.64-33.03,84.42-35.93,121.98l-27.38-59.77-59.27-28.42c37.6-2.24,86.66-17.67,122.58-33.78Z"/>
  </g>
  <g>
    <line class="cls-3" x1="263.6" y1="1502.91" x2="271.42" y2="1495.22"/>
    <path class="cls-2" d="M271.42,1495.22c-16.73,35.64-33.03,84.42-35.93,121.98l-27.38-59.77-59.27-28.42c37.6-2.24,86.66-17.67,122.58-33.78Z"/>
  </g>
  <g>
    <line class="cls-3" x1="470" y1="1502.91" x2="477.82" y2="1495.22"/>
    <path class="cls-2" d="M477.82,1495.22c-16.73,35.64-33.03,84.42-35.93,121.98l-27.38-59.77-59.27-28.42c37.6-2.24,86.66-17.67,122.58-33.78Z"/>
  </g>
  <g>
    <line class="cls-3" x1="664.68" y1="1447.29" x2="672.5" y2="1439.61"/>
    <path class="cls-2" d="M672.5,1439.61c-16.73,35.64-33.03,84.42-35.93,121.98l-27.38-59.77-59.27-28.42c37.6-2.24,86.66-17.67,122.58-33.78Z"/>
  </g>
  <g>
    <line class="cls-3" x1="321.85" y1="1306.62" x2="329.67" y2="1298.94"/>
    <path class="cls-2" d="M329.67,1298.94c-16.73,35.64-33.03,84.42-35.93,121.98l-27.38-59.77-59.27-28.42c37.6-2.24,86.66-17.67,122.58-33.78Z"/>
  </g>
  <g>
    <line class="cls-3" x1="616.3" y1="1348.16" x2="624.12" y2="1340.47"/>
    <path class="cls-2" d="M624.12,1340.47c-16.73,35.64-33.03,84.42-35.93,121.98l-27.38-59.77-59.27-28.42c37.6-2.24,86.66-17.67,122.58-33.78Z"/>
  </g>
  <g>
    <line class="cls-3" x1="1565.24" y1="121.02" x2="1573.06" y2="113.34"/>
    <path class="cls-2" d="M1573.06,113.34c-16.73,35.64-33.03,84.42-35.93,121.98l-27.38-59.77-59.27-28.42c37.6-2.24,86.66-17.67,122.58-33.78Z"/>
  </g>
  <g>
    <line class="cls-3" x1="1620.4" y1="256.67" x2="1628.22" y2="248.99"/>
    <path class="cls-2" d="M1628.22,248.99c-16.73,35.64-33.03,84.42-35.93,121.98l-27.38-59.77-59.27-28.42c37.6-2.24,86.66-17.67,122.58-33.78Z"/>
  </g>
  <g>
    <line class="cls-3" x1="1406.1" y1="161.76" x2="1413.92" y2="154.07"/>
    <path class="cls-2" d="M1413.92,154.07c-16.73,35.64-33.03,84.42-35.93,121.98l-27.38-59.77-59.27-28.42c37.6-2.24,86.66-17.67,122.58-33.78Z"/>
  </g>
  <g>
    <line class="cls-3" x1="1296.35" y1="107.86" x2="1304.18" y2="100.18"/>
    <path class="cls-2" d="M1304.18,100.18c-16.73,35.64-33.03,84.42-35.93,121.98l-27.38-59.77-59.27-28.42c37.6-2.24,86.66-17.67,122.58-33.78Z"/>
  </g>
  <g>
    <line class="cls-3" x1="1109.76" y1="102.06" x2="1117.58" y2="94.37"/>
    <path class="cls-2" d="M1117.58,94.37c-16.73,35.64-33.03,84.42-35.93,121.98l-27.38-59.77-59.27-28.42c37.6-2.24,86.66-17.67,122.58-33.78Z"/>
  </g>
  <g>
    <line class="cls-3" x1="930.07" y1="107.86" x2="937.89" y2="100.18"/>
    <path class="cls-2" d="M937.89,100.18c-16.73,35.64-33.03,84.42-35.93,121.98l-27.38-59.77-59.27-28.42c37.6-2.24,86.66-17.67,122.58-33.78Z"/>
  </g>
  <g>
    <line class="cls-3" x1="243.86" y1="385.34" x2="251.68" y2="377.65"/>
    <path class="cls-2" d="M251.68,377.65c-16.73,35.64-33.03,84.42-35.93,121.98l-27.38-59.77-59.27-28.42c37.6-2.24,86.66-17.67,122.58-33.78Z"/>
  </g>
  <g>
    <line class="cls-3" x1="251.24" y1="535.71" x2="259.06" y2="528.02"/>
    <path class="cls-2" d="M259.06,528.02c-16.73,35.64-33.03,84.42-35.93,121.98l-27.38-59.77-59.27-28.42c37.6-2.24,86.66-17.67,122.58-33.78Z"/>
  </g>
  <g>
    <line class="cls-3" x1="426.19" y1="346.92" x2="434.01" y2="339.23"/>
    <path class="cls-2" d="M434.01,339.23c-16.73,35.64-33.03,84.42-35.93,121.98l-27.38-59.77-59.27-28.42c37.6-2.24,86.66-17.67,122.58-33.78Z"/>
  </g>
  <g>
    <line class="cls-3" x1="612.39" y1="152.82" x2="620.21" y2="145.13"/>
    <path class="cls-2" d="M620.21,145.13c-16.73,35.64-33.03,84.42-35.93,121.98l-27.38-59.77-59.27-28.42c37.6-2.24,86.66-17.67,122.58-33.78Z"/>
  </g>
  <g>
    <line class="cls-3" x1="959.5" y1="249.68" x2="967.32" y2="242"/>
    <path class="cls-2" d="M967.32,242c-16.73,35.64-33.03,84.42-35.93,121.98l-27.38-59.77-59.27-28.42c37.6-2.24,86.66-17.67,122.58-33.78Z"/>
  </g>
  <g>
    <line class="cls-3" x1="407.75" y1="124.86" x2="415.57" y2="117.18"/>
    <path class="cls-2" d="M415.57,117.18c-16.73,35.64-33.03,84.42-35.93,121.98l-27.38-59.77-59.27-28.42c37.6-2.24,86.66-17.67,122.58-33.78Z"/>
  </g>
  <g>
    <line class="cls-3" x1="529.21" y1="260.51" x2="537.03" y2="252.83"/>
    <path class="cls-2" d="M537.03,252.83c-16.73,35.64-33.03,84.42-35.93,121.98l-27.38-59.77-59.27-28.42c37.6-2.24,86.66-17.67,122.58-33.78Z"/>
  </g>
  <g>
    <line class="cls-3" x1="735" y1="98.21" x2="742.82" y2="90.53"/>
    <path class="cls-2" d="M742.82,90.53c-16.73,35.64-33.03,84.42-35.93,121.98l-27.38-59.77-59.27-28.42c37.6-2.24,86.66-17.67,122.58-33.78Z"/>
  </g>
  <g>
    <line class="cls-1" x1="764.19" y1="353.48" x2="807.41" y2="456.57"/>
    <line class="cls-1" x1="862.53" y1="358.05" x2="807.41" y2="456.57"/>
    <line class="cls-1" x1="928.73" y1="401.56" x2="807.41" y2="456.57"/>
    <line class="cls-1" x1="697.87" y1="421.15" x2="807.41" y2="456.57"/>
    <line class="cls-1" x1="807.88" y1="989.78" x2="703.3" y2="931.85"/>
    <line class="cls-1" x1="669.6" y1="702.86" x2="723.79" y2="733.17"/>
    <line class="cls-1" x1="807" y1="737.04" x2="723.79" y2="733.17"/>
    <line class="cls-1" x1="750.82" y1="640.93" x2="723.79" y2="733.17"/>
    <line class="cls-1" x1="695.78" y1="779.88" x2="723.79" y2="733.17"/>
    <line class="cls-1" x1="807.88" y1="989.78" x2="807.41" y2="456.57"/>
    <line class="cls-1" x1="689.08" y1="1201.57" x2="807.88" y2="989.78"/>
    <line class="cls-1" x1="1056.86" y1="960.93" x2="807.88" y2="989.78"/>
    <line class="cls-1" x1="1109.11" y1="869.86" x2="1056.86" y2="960.93"/>
    <line class="cls-1" x1="1174.26" y1="936.07" x2="1056.86" y2="960.93"/>
    <line class="cls-1" x1="1374.57" y1="975.71" x2="1169.45" y2="1039.45"/>
    <line class="cls-1" x1="1343.49" y1="1100.61" x2="1169.45" y2="1039.45"/>
    <line class="cls-1" x1="1059.27" y1="961.04" x2="1169.45" y2="1039.45"/>
    <line class="cls-1" x1="1249.14" y1="1227.62" x2="1169.45" y2="1039.45"/>
    <line class="cls-1" x1="1377.74" y1="1233.6" x2="1249.14" y2="1227.62"/>
    <line class="cls-1" x1="1295.47" y1="1318.22" x2="1249.14" y2="1227.62"/>
    <line class="cls-1" x1="1224.16" y1="1330.07" x2="1249.14" y2="1227.62"/>
    <line class="cls-1" x1="1015.4" y1="602.7" x2="986.18" y2="689.48"/>
    <line class="cls-1" x1="1066.71" y1="749.12" x2="983.57" y2="689.36"/>
    <line class="cls-1" x1="807" y1="737.04" x2="983.57" y2="689.36"/>
    <line class="cls-1" x1="532.03" y1="618.12" x2="655" y2="636.48"/>
    <line class="cls-1" x1="614.77" y1="523.42" x2="655" y2="636.48"/>
    <line class="cls-1" x1="526.76" y1="731.59" x2="655" y2="636.48"/>
    <line class="cls-1" x1="801.07" y1="592.73" x2="655" y2="636.48"/>
    <line class="cls-1" x1="691.65" y1="554.79" x2="801.07" y2="592.73"/>
    <line class="cls-1" x1="956.88" y1="448.36" x2="906.91" y2="511.74"/>
    <line class="cls-1" x1="1006.34" y1="498.67" x2="906.91" y2="511.74"/>
    <line class="cls-1" x1="963.97" y1="567.46" x2="906.91" y2="511.74"/>
    <line class="cls-1" x1="813.91" y1="588.33" x2="906.91" y2="511.74"/>
    <line class="cls-1" x1="919.82" y1="593.26" x2="813.91" y2="588.33"/>
  </g>
  <g>
    <line class="cls-3" x1="314.03" y1="944.99" x2="321.85" y2="937.31"/>
    <path class="cls-2" d="M321.85,937.31c-16.73,35.64-33.03,84.42-35.93,121.98l-27.38-59.77-59.27-28.42c37.6-2.24,86.66-17.67,122.58-33.78Z"/>
  </g>
  <g>
    <line class="cls-3" x1="114.76" y1="1419.96" x2="122.58" y2="1412.28"/>
    <path class="cls-2" d="M122.58,1412.28c-16.73,35.64-33.03,84.42-35.93,121.98l-27.38-59.77-59.27-28.42c37.6-2.24,86.66-17.67,122.58-33.78Z"/>
  </g>
  <g>
    <line class="cls-3" x1="116.95" y1="690.89" x2="124.77" y2="683.21"/>
    <path class="cls-2" d="M124.77,683.21c-16.73,35.64-33.03,84.42-35.93,121.98l-27.38-59.77-59.27-28.42c37.6-2.24,86.66-17.67,122.58-33.78Z"/>
  </g>
  <g>
    <line class="cls-3" x1="247.77" y1="52.11" x2="255.59" y2="44.43"/>
    <path class="cls-2" d="M255.59,44.43c-16.73,35.64-33.03,84.42-35.93,121.98l-27.38-59.77-59.27-28.42c37.6-2.24,86.66-17.67,122.58-33.78Z"/>
  </g>
  <g>
    <line class="cls-3" x1="171.13" y1="173.19" x2="178.95" y2="165.51"/>
    <path class="cls-2" d="M178.95,165.51c-16.73,35.64-33.03,84.42-35.93,121.98l-27.38-59.77-59.27-28.42c37.6-2.24,86.66-17.67,122.58-33.78Z"/>
  </g>
  <g>
    <line class="cls-3" x1="533.12" y1="52.11" x2="540.94" y2="44.43"/>
    <path class="cls-2" d="M540.94,44.43c-16.73,35.64-33.03,84.42-35.93,121.98l-27.38-59.77-59.27-28.42c37.6-2.24,86.66-17.67,122.58-33.78Z"/>
  </g>
  <g>
    <line class="cls-3" x1="1746.24" y1="67.2" x2="1754.06" y2="59.51"/>
    <path class="cls-2" d="M1754.06,59.51c-16.73,35.64-33.03,84.42-35.93,121.98l-27.38-59.77-59.27-28.42c37.6-2.24,86.66-17.67,122.58-33.78Z"/>
  </g>
  <g>
    <line class="cls-3" x1="1008.73" y1="22.83" x2="1016.56" y2="15.15"/>
    <path class="cls-2" d="M1016.56,15.15c-16.73,35.64-33.03,84.42-35.93,121.98l-27.38-59.77-59.27-28.42c37.6-2.24,86.66-17.67,122.58-33.78Z"/>
  </g>
  <g>
    <line class="cls-3" x1="1441.78" y1="7.68" x2="1449.6"/>
    <path class="cls-2" d="M1449.6,0c-16.73,35.64-33.03,84.42-35.93,121.98l-27.38-59.77-59.27-28.42C1364.62,31.54,1413.67,16.11,1449.6,0Z"/>
  </g>
  <g>
    <line class="cls-3" x1="1746.24" y1="938.58" x2="1754.06" y2="930.89"/>
    <path class="cls-2" d="M1754.06,930.89c-16.73,35.64-33.03,84.42-35.93,121.98l-27.38-59.77-59.27-28.42c37.6-2.24,86.66-17.67,122.58-33.78Z"/>
  </g>
  <g>
    <line class="cls-3" x1="1608.37" y1="1615.18" x2="1616.19" y2="1607.5"/>
    <path class="cls-2" d="M1616.19,1607.5c-16.73,35.64-33.03,84.42-35.93,121.98l-27.38-59.77-59.27-28.42c37.6-2.24,86.66-17.67,122.58-33.78Z"/>
  </g>
</svg>